<svg xmlns="http://www.w3.org/2000/svg"><g><path d="M29.578.015H2.305C1 .015-.06 1.04-.06 2.307V29.72c0 1.268 1.06 2.295 2.365 2.295h27.273c1.305 0 2.363-1.028 2.363-2.294V2.308c0-1.266-1.057-2.292-2.362-2.292zM9.642 26.8H4.807V12.354h4.835V26.8zM7.225 10.38h-.032c-1.622 0-2.673-1.11-2.673-2.498 0-1.416 1.082-2.494 2.736-2.494 1.653 0 2.67 1.078 2.703 2.494 0 1.39-1.05 2.498-2.735 2.498zM27.07 26.8h-4.833v-7.73c0-1.94-.7-3.267-2.448-3.267-1.338 0-2.132.894-2.48 1.758-.13.31-.162.74-.162 1.17v8.07h-4.832s.063-13.092 0-14.447h4.833V14.4c.64-.983 1.787-2.387 4.354-2.387 3.18 0 5.567 2.064 5.567 6.504V26.8zM17.12 14.448l.03-.045v.045h-.03z" fill="#fff"/></g></svg>
